HIERARCHY
ROOT Hips
{
	OFFSET -3.958830 18.904000 13.208200
	CHANNELS 6 Xposition Yposition Zposition Zrotation Yrotation Xrotation 
	JOINT LHipJoint
	{
		OFFSET 0.000000 0.000000 0.000000
		CHANNELS 3 Zrotation Yrotation Xrotation
		JOINT LeftUpLeg
		{
			OFFSET 1.800000 -1.400000 0.085000
			CHANNELS 3 Zrotation Yrotation Xrotation
			JOINT LeftLeg
			{
				OFFSET 2.215000 -6.000000 0.000000
				CHANNELS 3 Zrotation Yrotation Xrotation
				JOINT LeftFoot
				{
					OFFSET 2.500000 -6.900000 0.000000
					CHANNELS 3 Zrotation Yrotation Xrotation
					JOINT LeftToeBase
					{
						OFFSET 0.200000 -0.500000 1.950000
						CHANNELS 3 Zrotation Yrotation Xrotation
						End Site
						{
							OFFSET 0.000000 0.000000 0.000000
						}
					}
				}
			}
		}
	}
	JOINT RHipJoint
	{
		OFFSET 0.000000 0.000000 0.000000
		CHANNELS 3 Zrotation Yrotation Xrotation
		JOINT RightUpLeg
		{
			OFFSET -1.800000 -1.400000 0.085000
			CHANNELS 3 Zrotation Yrotation Xrotation
			JOINT RightLeg
			{
				OFFSET -2.215000 -6.000000 0.000000
				CHANNELS 3 Zrotation Yrotation Xrotation
				JOINT RightFoot
				{
					OFFSET -2.500000 -6.900000 0.000000
					CHANNELS 3 Zrotation Yrotation Xrotation
					JOINT RightToeBase
					{
						OFFSET -0.200000 -0.500000 1.950000
						CHANNELS 3 Zrotation Yrotation Xrotation
						End Site
						{
							OFFSET 0.000000 0.000000 0.000000
						}
					}
				}
			}
		}
	}
	JOINT LowerBack
	{
		OFFSET 0.000000 0.000000 0.000000
		CHANNELS 3 Zrotation Yrotation Xrotation
		JOINT Spine
		{
			OFFSET -0.087000 1.940000 -0.288900
			CHANNELS 3 Zrotation Yrotation Xrotation
			JOINT Spine1
			{
				OFFSET 0.000000 1.950000 0.060000
				CHANNELS 3 Zrotation Yrotation Xrotation
				JOINT Neck
				{
					OFFSET 0.000000 0.000000 0.000000
					CHANNELS 3 Zrotation Yrotation Xrotation
					JOINT Neck1
					{
						OFFSET 0.000000 1.600000 0.340000
						CHANNELS 3 Zrotation Yrotation Xrotation
						JOINT Head
						{
							OFFSET 0.000000 1.667000 -0.240000
							CHANNELS 3 Zrotation Yrotation Xrotation
							End Site
							{
								OFFSET 0.000000 0.000000 0.000000
							}
						}
					}
				}
				JOINT LeftShoulder
				{
					OFFSET 0.000000 0.000000 0.000000
					CHANNELS 3 Zrotation Yrotation Xrotation
					JOINT LeftArm
					{
						OFFSET 2.700000 1.550000 -0.730000
						CHANNELS 3 Zrotation Yrotation Xrotation
						JOINT LeftForeArm
						{
							OFFSET 5.450000 0.000000 0.000000
							CHANNELS 3 Zrotation Yrotation Xrotation
							JOINT LeftHand
							{
								OFFSET 3.450000 0.000000 0.000000
								CHANNELS 3 Zrotation Yrotation Xrotation
								JOINT LeftHandIndex1
								{
									OFFSET 0.750000 0.000000 0.000000
									CHANNELS 3 Zrotation Yrotation Xrotation
									End Site
									{
										OFFSET 0.000000 0.000000 0.000000
									}
								}
							}
						}
					}
				}
				JOINT RightShoulder
				{
					OFFSET 0.000000 0.000000 0.000000
					CHANNELS 3 Zrotation Yrotation Xrotation
					JOINT RightArm
					{
						OFFSET -2.700000 1.550000 -0.730000
						CHANNELS 3 Zrotation Yrotation Xrotation
						JOINT RightForeArm
						{
							OFFSET -5.450000 0.000000 0.000000
							CHANNELS 3 Zrotation Yrotation Xrotation
							JOINT RightHand
							{
								OFFSET -3.450000 0.000000 0.000000
								CHANNELS 3 Zrotation Yrotation Xrotation
								JOINT RightHandIndex1
								{
									OFFSET -0.750000 0.000000 0.000000
									CHANNELS 3 Zrotation Yrotation Xrotation
									End Site
									{
										OFFSET 0.000000 0.000000 0.000000
									}
								}
							}
						}
					}
				}
			}
		}
	}
}
MOTION
Frames: 4
Frame Time: 0.016667
0.642280 16.935330 -0.654020 -5.085721 -2.549174 4.743796 -14.844090 13.017666 3.246339 24.469852 -0.646321 -9.858437 -4.494223 4.728718 2.670307 -0.534024 5.227862 3.204322 0.697900 0.090810 0.346480 18.587152 -10.316272 3.003307 0.408703 -0.188470 -3.700263 7.249108 -4.540385 3.509052 -0.693157 -3.817021 3.481618 0.075890 0.513440 0.449930 -4.444254 -2.120126 -7.911773 23.776177 -2.505547 7.537731 -12.771922 0.413159 -1.094887 3.940874 -5.291041 -12.426491 -12.759790 3.889438 36.513680 -0.764840 -0.621470 -11.411900 -18.710619 -7.726767 3.092897 1.993561 4.236795 0.733880 8.800957 -1.629121 -1.142134 -3.915614 2.549985 0.982250 0.242440 -0.021960 0.539290 10.056024 11.942705 10.004888 -0.836653 -3.352017 -1.149322 -7.376921 -1.349487 0.093024 2.112959 -1.327448 -0.312840 0.326500 -0.181510 -0.279610 
0.654510 16.934790 -0.657770 -5.037701 -2.400564 4.761416 -14.847714 13.031600 3.235581 24.282259 -0.655696 -10.038734 -4.506732 4.725109 2.775253 -0.545716 5.197464 3.211809 0.678100 0.073530 0.331230 18.582978 -10.320838 3.002916 0.457406 -0.186121 -3.766739 7.005701 -4.500449 3.484915 -0.678192 -3.801376 3.490500 0.068080 0.515180 0.439380 -4.433396 -2.139378 -7.908678 23.715185 -2.557002 7.670183 -12.836418 0.395969 -0.973275 4.030531 -5.214561 -12.474528 -12.564697 3.702418 36.120480 -0.874530 -0.649160 -11.283610 -18.599214 -7.553044 3.084926 1.806863 4.377109 0.671256 9.775963 -1.123294 -1.105105 -3.931795 2.543716 0.979880 0.244490 -0.032260 0.530780 9.792669 11.649331 10.137753 -0.841375 -5.065284 -1.039635 -6.607182 0.070206 0.041139 2.077469 -1.319035 -0.322020 0.325870 -0.170690 -0.282150 
0.666480 16.937070 -0.661760 -5.026374 -2.317228 4.759129 -14.848324 13.047457 3.215196 24.097391 -0.670121 -10.157221 -4.431021 4.701681 2.911418 -0.542013 5.157367 3.220937 0.681830 0.082390 0.323050 18.581354 -10.329516 3.006584 0.520749 -0.188138 -3.807883 6.841248 -4.468736 3.462311 -0.676416 -3.799733 3.488407 0.071300 0.511520 0.449860 -4.429746 -2.146705 -7.896439 23.775970 -2.612677 7.764955 -12.938906 0.359789 -0.951654 4.091815 -5.217669 -12.452120 -12.485792 3.682053 35.739767 -0.793830 -0.638760 -11.126400 -18.357991 -7.241605 3.005259 1.522479 4.283704 0.620921 10.463817 -0.620517 -1.064838 -3.941704 2.565087 0.969900 0.246930 -0.028440 0.537970 9.448394 11.298879 10.177464 -0.555512 -6.244773 -0.977962 -6.304491 1.318934 0.009401 2.052888 -1.338663 -0.310800 0.308620 -0.177640 -0.274180 
0.674160 16.939580 -0.670850 -4.970433 -2.276393 4.696796 -14.853316 13.073410 3.201995 23.922299 -0.671555 -10.253565 -4.392242 4.694141 3.065472 -0.548876 5.126098 3.229890 0.690670 0.093410 0.325770 18.571907 -10.335790 3.010679 0.442257 -0.183137 -3.823793 6.860125 -4.469121 3.456239 -0.675126 -3.804782 3.491594 0.077750 0.506480 0.450500 -4.408460 -2.175096 -7.899133 23.630286 -2.655809 8.027161 -12.815051 0.320091 -1.013517 4.145379 -5.206683 -12.360043 -12.398950 3.631394 35.474379 -0.986840 -0.549460 -11.174880 -18.321673 -6.980784 2.878227 1.603259 4.212599 0.626767 10.531905 -0.293625 -1.044996 -3.944481 2.571550 0.967250 0.248460 -0.028020 0.543380 9.323519 11.004807 10.133156 -0.703255 -7.190117 -0.918203 -5.952781 2.405260 -0.020693 2.023594 -1.353131 -0.308010 0.302600 -0.186040 -0.274620 
